<svg width="29" height="29" viewBox="0 0 29 29" fill="none" xmlns="http://www.w3.org/2000/svg">
<path d="M17.8954 1.8125L19.9695 5.01942L23.7842 5.21033L23.977 9.02444L27.1857 11.0967L25.4451 14.497L27.1875 17.8954L23.9806 19.9695L23.7897 23.7842L19.9756 23.977L17.9033 27.1857L14.503 25.4451L11.1046 27.1875L9.03048 23.9806L5.21577 23.7897L5.02304 19.9756L1.81431 17.9033L3.55492 14.503L1.8125 11.1046L5.01942 9.03048L5.21033 5.21577L9.02444 5.02304L11.0967 1.81431L14.497 3.55492L17.8954 1.8125Z" fill="#94710F"/>
<path d="M12.9267 18.8832L9.00146 14.9592L10.2835 13.6777L12.9461 16.3403L18.7267 10.7372L19.9882 12.0386L12.9267 18.8832Z" fill="white"/>
</svg>
